<?xml version="1.0" encoding="UTF-8" standalone="no"?>
<!DOCTYPE svg PUBLIC "-//W3C//DTD SVG 1.1//EN"
 "http://www.w3.org/Graphics/SVG/1.1/DTD/svg11.dtd">
<!-- Generated by graphviz version 2.43.0 (0)
 -->
<!-- Title: %3 Pages: 1 -->
<svg width="2151pt" height="548pt"
 viewBox="0.00 0.00 2151.01 548.00" xmlns="http://www.w3.org/2000/svg" xmlns:xlink="http://www.w3.org/1999/xlink">
<g id="graph0" class="graph" transform="scale(1 1) rotate(0) translate(4 544)">
<title>%3</title>
<polygon fill="white" stroke="transparent" points="-4,4 -4,-544 2147.01,-544 2147.01,4 -4,4"/>
<!-- [root] aws_instance.my_server_1 (expand) -->
<g id="node1" class="node">
<title>[root] aws_instance.my_server_1 (expand)</title>
<polygon fill="none" stroke="black" points="771.23,-324 565.23,-324 565.23,-288 771.23,-288 771.23,-324"/>
<text text-anchor="middle" x="668.23" y="-302.3" font-family="Times,serif" font-size="14.00">aws_instance.my_server_1</text>
</g>
<!-- [root] aws_security_group.mi_grupo_de_seguridad (expand) -->
<g id="node9" class="node">
<title>[root] aws_security_group.mi_grupo_de_seguridad (expand)</title>
<polygon fill="none" stroke="black" points="970.73,-252 639.73,-252 639.73,-216 970.73,-216 970.73,-252"/>
<text text-anchor="middle" x="805.23" y="-230.3" font-family="Times,serif" font-size="14.00">aws_security_group.mi_grupo_de_seguridad</text>
</g>
<!-- [root] aws_instance.my_server_1 (expand)&#45;&gt;[root] aws_security_group.mi_grupo_de_seguridad (expand) -->
<g id="edge1" class="edge">
<title>[root] aws_instance.my_server_1 (expand)&#45;&gt;[root] aws_security_group.mi_grupo_de_seguridad (expand)</title>
<path fill="none" stroke="black" d="M701.75,-287.88C720.07,-278.51 742.97,-266.81 762.56,-256.8"/>
<polygon fill="black" stroke="black" points="764.28,-259.86 771.59,-252.19 761.09,-253.62 764.28,-259.86"/>
</g>
<!-- [root] data.aws_subnet.az_a (expand) -->
<g id="node10" class="node">
<title>[root] data.aws_subnet.az_a (expand)</title>
<polygon fill="none" stroke="black" points="1189.73,-252 1018.73,-252 1018.73,-216 1189.73,-216 1189.73,-252"/>
<text text-anchor="middle" x="1104.23" y="-230.3" font-family="Times,serif" font-size="14.00">data.aws_subnet.az_a</text>
</g>
<!-- [root] aws_instance.my_server_1 (expand)&#45;&gt;[root] data.aws_subnet.az_a (expand) -->
<g id="edge2" class="edge">
<title>[root] aws_instance.my_server_1 (expand)&#45;&gt;[root] data.aws_subnet.az_a (expand)</title>
<path fill="none" stroke="black" d="M771.28,-288.46C843.04,-276.93 938.07,-261.68 1008.23,-250.41"/>
<polygon fill="black" stroke="black" points="1009.08,-253.82 1018.4,-248.78 1007.97,-246.91 1009.08,-253.82"/>
</g>
<!-- [root] aws_instance.my_server_2 (expand) -->
<g id="node2" class="node">
<title>[root] aws_instance.my_server_2 (expand)</title>
<polygon fill="none" stroke="black" points="1885.23,-324 1679.23,-324 1679.23,-288 1885.23,-288 1885.23,-324"/>
<text text-anchor="middle" x="1782.23" y="-302.3" font-family="Times,serif" font-size="14.00">aws_instance.my_server_2</text>
</g>
<!-- [root] data.aws_subnet.az_b (expand) -->
<g id="node11" class="node">
<title>[root] data.aws_subnet.az_b (expand)</title>
<polygon fill="none" stroke="black" points="1544.23,-252 1372.23,-252 1372.23,-216 1544.23,-216 1544.23,-252"/>
<text text-anchor="middle" x="1458.23" y="-230.3" font-family="Times,serif" font-size="14.00">data.aws_subnet.az_b</text>
</g>
<!-- [root] aws_instance.my_server_2 (expand)&#45;&gt;[root] data.aws_subnet.az_b (expand) -->
<g id="edge3" class="edge">
<title>[root] aws_instance.my_server_2 (expand)&#45;&gt;[root] data.aws_subnet.az_b (expand)</title>
<path fill="none" stroke="black" d="M1703.39,-287.97C1656.16,-277.76 1596,-264.76 1547.09,-254.2"/>
<polygon fill="black" stroke="black" points="1547.66,-250.74 1537.15,-252.05 1546.19,-257.58 1547.66,-250.74"/>
</g>
<!-- [root] aws_lb.alb (expand) -->
<g id="node3" class="node">
<title>[root] aws_lb.alb (expand)</title>
<polygon fill="none" stroke="black" points="1269.73,-324 1178.73,-324 1178.73,-288 1269.73,-288 1269.73,-324"/>
<text text-anchor="middle" x="1224.23" y="-302.3" font-family="Times,serif" font-size="14.00">aws_lb.alb</text>
</g>
<!-- [root] aws_security_group.alb (expand) -->
<g id="node8" class="node">
<title>[root] aws_security_group.alb (expand)</title>
<polygon fill="none" stroke="black" points="1316.23,-180 1132.23,-180 1132.23,-144 1316.23,-144 1316.23,-180"/>
<text text-anchor="middle" x="1224.23" y="-158.3" font-family="Times,serif" font-size="14.00">aws_security_group.alb</text>
</g>
<!-- [root] aws_lb.alb (expand)&#45;&gt;[root] aws_security_group.alb (expand) -->
<g id="edge4" class="edge">
<title>[root] aws_lb.alb (expand)&#45;&gt;[root] aws_security_group.alb (expand)</title>
<path fill="none" stroke="black" d="M1224.23,-287.87C1224.23,-263.67 1224.23,-219.21 1224.23,-190.39"/>
<polygon fill="black" stroke="black" points="1227.73,-190.19 1224.23,-180.19 1220.73,-190.19 1227.73,-190.19"/>
</g>
<!-- [root] aws_lb.alb (expand)&#45;&gt;[root] data.aws_subnet.az_a (expand) -->
<g id="edge5" class="edge">
<title>[root] aws_lb.alb (expand)&#45;&gt;[root] data.aws_subnet.az_a (expand)</title>
<path fill="none" stroke="black" d="M1194.88,-287.88C1179.19,-278.72 1159.68,-267.34 1142.78,-257.48"/>
<polygon fill="black" stroke="black" points="1144.1,-254.21 1133.7,-252.19 1140.58,-260.25 1144.1,-254.21"/>
</g>
<!-- [root] aws_lb.alb (expand)&#45;&gt;[root] data.aws_subnet.az_b (expand) -->
<g id="edge6" class="edge">
<title>[root] aws_lb.alb (expand)&#45;&gt;[root] data.aws_subnet.az_b (expand)</title>
<path fill="none" stroke="black" d="M1269.91,-291.34C1304.48,-280.99 1352.5,-266.63 1391.39,-254.99"/>
<polygon fill="black" stroke="black" points="1392.5,-258.32 1401.07,-252.1 1390.49,-251.61 1392.5,-258.32"/>
</g>
<!-- [root] aws_lb_listener.this (expand) -->
<g id="node4" class="node">
<title>[root] aws_lb_listener.this (expand)</title>
<polygon fill="none" stroke="black" points="1601.23,-396 1445.23,-396 1445.23,-360 1601.23,-360 1601.23,-396"/>
<text text-anchor="middle" x="1523.23" y="-374.3" font-family="Times,serif" font-size="14.00">aws_lb_listener.this</text>
</g>
<!-- [root] aws_lb_listener.this (expand)&#45;&gt;[root] aws_lb.alb (expand) -->
<g id="edge7" class="edge">
<title>[root] aws_lb_listener.this (expand)&#45;&gt;[root] aws_lb.alb (expand)</title>
<path fill="none" stroke="black" d="M1445.09,-360.5C1398.78,-350.49 1339.01,-337.13 1286.23,-324 1284.08,-323.46 1281.88,-322.91 1279.67,-322.34"/>
<polygon fill="black" stroke="black" points="1280.44,-318.92 1269.88,-319.78 1278.67,-325.7 1280.44,-318.92"/>
</g>
<!-- [root] aws_lb_target_group.this (expand) -->
<g id="node5" class="node">
<title>[root] aws_lb_target_group.this (expand)</title>
<polygon fill="none" stroke="black" points="1491.23,-324 1295.23,-324 1295.23,-288 1491.23,-288 1491.23,-324"/>
<text text-anchor="middle" x="1393.23" y="-302.3" font-family="Times,serif" font-size="14.00">aws_lb_target_group.this</text>
</g>
<!-- [root] aws_lb_listener.this (expand)&#45;&gt;[root] aws_lb_target_group.this (expand) -->
<g id="edge8" class="edge">
<title>[root] aws_lb_listener.this (expand)&#45;&gt;[root] aws_lb_target_group.this (expand)</title>
<path fill="none" stroke="black" d="M1491.43,-359.88C1474.12,-350.55 1452.51,-338.92 1433.98,-328.94"/>
<polygon fill="black" stroke="black" points="1435.62,-325.85 1425.16,-324.19 1432.3,-332.01 1435.62,-325.85"/>
</g>
<!-- [root] data.aws_vpc.default (expand) -->
<g id="node12" class="node">
<title>[root] data.aws_vpc.default (expand)</title>
<polygon fill="none" stroke="black" points="1349.73,-108 1182.73,-108 1182.73,-72 1349.73,-72 1349.73,-108"/>
<text text-anchor="middle" x="1266.23" y="-86.3" font-family="Times,serif" font-size="14.00">data.aws_vpc.default</text>
</g>
<!-- [root] aws_lb_target_group.this (expand)&#45;&gt;[root] data.aws_vpc.default (expand) -->
<g id="edge9" class="edge">
<title>[root] aws_lb_target_group.this (expand)&#45;&gt;[root] data.aws_vpc.default (expand)</title>
<path fill="none" stroke="black" d="M1382.43,-287.74C1376.33,-277.57 1368.83,-264.32 1363.23,-252 1342.17,-205.68 1353.49,-186.32 1325.23,-144 1318.01,-133.17 1308.07,-123.12 1298.42,-114.74"/>
<polygon fill="black" stroke="black" points="1300.36,-111.81 1290.43,-108.11 1295.89,-117.19 1300.36,-111.81"/>
</g>
<!-- [root] aws_lb_target_group_attachment.servidor1 (expand) -->
<g id="node6" class="node">
<title>[root] aws_lb_target_group_attachment.servidor1 (expand)</title>
<polygon fill="none" stroke="black" points="1427.23,-396 1101.23,-396 1101.23,-360 1427.23,-360 1427.23,-396"/>
<text text-anchor="middle" x="1264.23" y="-374.3" font-family="Times,serif" font-size="14.00">aws_lb_target_group_attachment.servidor1</text>
</g>
<!-- [root] aws_lb_target_group_attachment.servidor1 (expand)&#45;&gt;[root] aws_instance.my_server_1 (expand) -->
<g id="edge10" class="edge">
<title>[root] aws_lb_target_group_attachment.servidor1 (expand)&#45;&gt;[root] aws_instance.my_server_1 (expand)</title>
<path fill="none" stroke="black" d="M1119.2,-359.97C1015.2,-347.75 877.11,-331.53 781.25,-320.27"/>
<polygon fill="black" stroke="black" points="781.58,-316.79 771.24,-319.1 780.76,-323.74 781.58,-316.79"/>
</g>
<!-- [root] aws_lb_target_group_attachment.servidor1 (expand)&#45;&gt;[root] aws_lb_target_group.this (expand) -->
<g id="edge11" class="edge">
<title>[root] aws_lb_target_group_attachment.servidor1 (expand)&#45;&gt;[root] aws_lb_target_group.this (expand)</title>
<path fill="none" stroke="black" d="M1295.79,-359.88C1312.89,-350.6 1334.22,-339.03 1352.55,-329.08"/>
<polygon fill="black" stroke="black" points="1354.44,-332.04 1361.56,-324.19 1351.1,-325.88 1354.44,-332.04"/>
</g>
<!-- [root] aws_lb_target_group_attachment.servidor2 (expand) -->
<g id="node7" class="node">
<title>[root] aws_lb_target_group_attachment.servidor2 (expand)</title>
<polygon fill="none" stroke="black" points="1945.23,-396 1619.23,-396 1619.23,-360 1945.23,-360 1945.23,-396"/>
<text text-anchor="middle" x="1782.23" y="-374.3" font-family="Times,serif" font-size="14.00">aws_lb_target_group_attachment.servidor2</text>
</g>
<!-- [root] aws_lb_target_group_attachment.servidor2 (expand)&#45;&gt;[root] aws_instance.my_server_2 (expand) -->
<g id="edge12" class="edge">
<title>[root] aws_lb_target_group_attachment.servidor2 (expand)&#45;&gt;[root] aws_instance.my_server_2 (expand)</title>
<path fill="none" stroke="black" d="M1782.23,-359.7C1782.23,-351.98 1782.23,-342.71 1782.23,-334.11"/>
<polygon fill="black" stroke="black" points="1785.73,-334.1 1782.23,-324.1 1778.73,-334.1 1785.73,-334.1"/>
</g>
<!-- [root] aws_lb_target_group_attachment.servidor2 (expand)&#45;&gt;[root] aws_lb_target_group.this (expand) -->
<g id="edge13" class="edge">
<title>[root] aws_lb_target_group_attachment.servidor2 (expand)&#45;&gt;[root] aws_lb_target_group.this (expand)</title>
<path fill="none" stroke="black" d="M1687.57,-359.97C1630.28,-349.66 1557.13,-336.49 1498.08,-325.87"/>
<polygon fill="black" stroke="black" points="1498.44,-322.38 1487.98,-324.05 1497.21,-329.27 1498.44,-322.38"/>
</g>
<!-- [root] aws_security_group.alb (expand)&#45;&gt;[root] data.aws_vpc.default (expand) -->
<g id="edge14" class="edge">
<title>[root] aws_security_group.alb (expand)&#45;&gt;[root] data.aws_vpc.default (expand)</title>
<path fill="none" stroke="black" d="M1234.62,-143.7C1239.5,-135.56 1245.42,-125.69 1250.81,-116.7"/>
<polygon fill="black" stroke="black" points="1253.83,-118.48 1255.97,-108.1 1247.82,-114.88 1253.83,-118.48"/>
</g>
<!-- [root] aws_security_group.mi_grupo_de_seguridad (expand)&#45;&gt;[root] aws_security_group.alb (expand) -->
<g id="edge15" class="edge">
<title>[root] aws_security_group.mi_grupo_de_seguridad (expand)&#45;&gt;[root] aws_security_group.alb (expand)</title>
<path fill="none" stroke="black" d="M907.2,-215.97C972.52,-205.05 1056.97,-190.94 1122.29,-180.03"/>
<polygon fill="black" stroke="black" points="1122.91,-183.48 1132.19,-178.38 1121.75,-176.57 1122.91,-183.48"/>
</g>
<!-- [root] provider[&quot;registry.terraform.io/hashicorp/aws&quot;] -->
<g id="node13" class="node">
<title>[root] provider[&quot;registry.terraform.io/hashicorp/aws&quot;]</title>
<polygon fill="none" stroke="black" points="1266.23,-36 940.97,-18 1266.23,0 1591.5,-18 1266.23,-36"/>
<text text-anchor="middle" x="1266.23" y="-14.3" font-family="Times,serif" font-size="14.00">provider[&quot;registry.terraform.io/hashicorp/aws&quot;]</text>
</g>
<!-- [root] data.aws_subnet.az_a (expand)&#45;&gt;[root] provider[&quot;registry.terraform.io/hashicorp/aws&quot;] -->
<g id="edge16" class="edge">
<title>[root] data.aws_subnet.az_a (expand)&#45;&gt;[root] provider[&quot;registry.terraform.io/hashicorp/aws&quot;]</title>
<path fill="none" stroke="black" d="M1105.8,-215.97C1107.96,-197.58 1112.83,-167.73 1123.23,-144 1138.98,-108.09 1145.24,-98.4 1174.23,-72 1188.48,-59.03 1206.42,-47.82 1222.67,-39.09"/>
<polygon fill="black" stroke="black" points="1224.74,-41.96 1232,-34.25 1221.51,-35.75 1224.74,-41.96"/>
</g>
<!-- [root] data.aws_subnet.az_b (expand)&#45;&gt;[root] provider[&quot;registry.terraform.io/hashicorp/aws&quot;] -->
<g id="edge17" class="edge">
<title>[root] data.aws_subnet.az_b (expand)&#45;&gt;[root] provider[&quot;registry.terraform.io/hashicorp/aws&quot;]</title>
<path fill="none" stroke="black" d="M1451.15,-215.81C1437.39,-184.11 1404.4,-115.69 1359.23,-72 1345.5,-58.72 1327.79,-47.55 1311.53,-38.95"/>
<polygon fill="black" stroke="black" points="1312.65,-35.6 1302.15,-34.18 1309.48,-41.84 1312.65,-35.6"/>
</g>
<!-- [root] data.aws_vpc.default (expand)&#45;&gt;[root] provider[&quot;registry.terraform.io/hashicorp/aws&quot;] -->
<g id="edge18" class="edge">
<title>[root] data.aws_vpc.default (expand)&#45;&gt;[root] provider[&quot;registry.terraform.io/hashicorp/aws&quot;]</title>
<path fill="none" stroke="black" d="M1266.23,-71.7C1266.23,-63.98 1266.23,-54.71 1266.23,-46.11"/>
<polygon fill="black" stroke="black" points="1269.73,-46.1 1266.23,-36.1 1262.73,-46.1 1269.73,-46.1"/>
</g>
<!-- [root] output.dns_load_balancer (expand) -->
<g id="node14" class="node">
<title>[root] output.dns_load_balancer (expand)</title>
<ellipse fill="none" stroke="black" cx="882.23" cy="-378" rx="201.46" ry="18"/>
<text text-anchor="middle" x="882.23" y="-374.3" font-family="Times,serif" font-size="14.00">[root] output.dns_load_balancer (expand)</text>
</g>
<!-- [root] output.dns_load_balancer (expand)&#45;&gt;[root] aws_lb.alb (expand) -->
<g id="edge19" class="edge">
<title>[root] output.dns_load_balancer (expand)&#45;&gt;[root] aws_lb.alb (expand)</title>
<path fill="none" stroke="black" d="M958.99,-361.29C1022.71,-348.25 1111.83,-330.01 1168.79,-318.35"/>
<polygon fill="black" stroke="black" points="1169.6,-321.76 1178.69,-316.32 1168.19,-314.9 1169.6,-321.76"/>
</g>
<!-- [root] output.dns_publica_server_1 (expand) -->
<g id="node15" class="node">
<title>[root] output.dns_publica_server_1 (expand)</title>
<ellipse fill="none" stroke="black" cx="409.23" cy="-378" rx="215.56" ry="18"/>
<text text-anchor="middle" x="409.23" y="-374.3" font-family="Times,serif" font-size="14.00">[root] output.dns_publica_server_1 (expand)</text>
</g>
<!-- [root] output.dns_publica_server_1 (expand)&#45;&gt;[root] aws_instance.my_server_1 (expand) -->
<g id="edge20" class="edge">
<title>[root] output.dns_publica_server_1 (expand)&#45;&gt;[root] aws_instance.my_server_1 (expand)</title>
<path fill="none" stroke="black" d="M469.63,-360.68C507.11,-350.55 555.52,-337.46 595.15,-326.75"/>
<polygon fill="black" stroke="black" points="596.29,-330.07 605.03,-324.08 594.46,-323.31 596.29,-330.07"/>
</g>
<!-- [root] output.dns_publica_server_2 (expand) -->
<g id="node16" class="node">
<title>[root] output.dns_publica_server_2 (expand)</title>
<ellipse fill="none" stroke="black" cx="1927.23" cy="-450" rx="215.56" ry="18"/>
<text text-anchor="middle" x="1927.23" y="-446.3" font-family="Times,serif" font-size="14.00">[root] output.dns_publica_server_2 (expand)</text>
</g>
<!-- [root] output.dns_publica_server_2 (expand)&#45;&gt;[root] aws_instance.my_server_2 (expand) -->
<g id="edge21" class="edge">
<title>[root] output.dns_publica_server_2 (expand)&#45;&gt;[root] aws_instance.my_server_2 (expand)</title>
<path fill="none" stroke="black" d="M1940.8,-431.73C1954.07,-412.58 1970.15,-381.56 1954.23,-360 1939.72,-340.34 1918.01,-327.74 1894.87,-319.73"/>
<polygon fill="black" stroke="black" points="1895.83,-316.36 1885.24,-316.67 1893.71,-323.03 1895.83,-316.36"/>
</g>
<!-- [root] output.ip_v4_server_1 (expand) -->
<g id="node17" class="node">
<title>[root] output.ip_v4_server_1 (expand)</title>
<ellipse fill="none" stroke="black" cx="657.23" cy="-450" rx="185.47" ry="18"/>
<text text-anchor="middle" x="657.23" y="-446.3" font-family="Times,serif" font-size="14.00">[root] output.ip_v4_server_1 (expand)</text>
</g>
<!-- [root] output.ip_v4_server_1 (expand)&#45;&gt;[root] aws_instance.my_server_1 (expand) -->
<g id="edge22" class="edge">
<title>[root] output.ip_v4_server_1 (expand)&#45;&gt;[root] aws_instance.my_server_1 (expand)</title>
<path fill="none" stroke="black" d="M658.56,-431.87C660.44,-407.67 663.88,-363.21 666.11,-334.39"/>
<polygon fill="black" stroke="black" points="669.62,-334.43 666.9,-324.19 662.64,-333.89 669.62,-334.43"/>
</g>
<!-- [root] output.ip_v4_server_2 (expand) -->
<g id="node18" class="node">
<title>[root] output.ip_v4_server_2 (expand)</title>
<ellipse fill="none" stroke="black" cx="185.23" cy="-450" rx="185.47" ry="18"/>
<text text-anchor="middle" x="185.23" y="-446.3" font-family="Times,serif" font-size="14.00">[root] output.ip_v4_server_2 (expand)</text>
</g>
<!-- [root] output.ip_v4_server_2 (expand)&#45;&gt;[root] aws_instance.my_server_1 (expand) -->
<g id="edge23" class="edge">
<title>[root] output.ip_v4_server_2 (expand)&#45;&gt;[root] aws_instance.my_server_1 (expand)</title>
<path fill="none" stroke="black" d="M178.93,-431.89C172.82,-412 166.8,-379.44 184.23,-360 208.56,-332.87 419.7,-318.24 554.96,-311.58"/>
<polygon fill="black" stroke="black" points="555.15,-315.08 564.97,-311.1 554.81,-308.09 555.15,-315.08"/>
</g>
<!-- [root] provider[&quot;registry.terraform.io/hashicorp/aws&quot;] (close) -->
<g id="node19" class="node">
<title>[root] provider[&quot;registry.terraform.io/hashicorp/aws&quot;] (close)</title>
<ellipse fill="none" stroke="black" cx="1310.23" cy="-450" rx="291.65" ry="18"/>
<text text-anchor="middle" x="1310.23" y="-446.3" font-family="Times,serif" font-size="14.00">[root] provider[&quot;registry.terraform.io/hashicorp/aws&quot;] (close)</text>
</g>
<!-- [root] provider[&quot;registry.terraform.io/hashicorp/aws&quot;] (close)&#45;&gt;[root] aws_lb_listener.this (expand) -->
<g id="edge24" class="edge">
<title>[root] provider[&quot;registry.terraform.io/hashicorp/aws&quot;] (close)&#45;&gt;[root] aws_lb_listener.this (expand)</title>
<path fill="none" stroke="black" d="M1361.25,-432.23C1391.37,-422.34 1429.69,-409.74 1461.5,-399.29"/>
<polygon fill="black" stroke="black" points="1462.74,-402.56 1471.15,-396.12 1460.56,-395.91 1462.74,-402.56"/>
</g>
<!-- [root] provider[&quot;registry.terraform.io/hashicorp/aws&quot;] (close)&#45;&gt;[root] aws_lb_target_group_attachment.servidor1 (expand) -->
<g id="edge25" class="edge">
<title>[root] provider[&quot;registry.terraform.io/hashicorp/aws&quot;] (close)&#45;&gt;[root] aws_lb_target_group_attachment.servidor1 (expand)</title>
<path fill="none" stroke="black" d="M1298.86,-431.7C1293.52,-423.56 1287.03,-413.69 1281.12,-404.7"/>
<polygon fill="black" stroke="black" points="1283.89,-402.54 1275.47,-396.1 1278.04,-406.38 1283.89,-402.54"/>
</g>
<!-- [root] provider[&quot;registry.terraform.io/hashicorp/aws&quot;] (close)&#45;&gt;[root] aws_lb_target_group_attachment.servidor2 (expand) -->
<g id="edge26" class="edge">
<title>[root] provider[&quot;registry.terraform.io/hashicorp/aws&quot;] (close)&#45;&gt;[root] aws_lb_target_group_attachment.servidor2 (expand)</title>
<path fill="none" stroke="black" d="M1416.75,-433.2C1488.18,-422.61 1582.53,-408.62 1657.47,-397.5"/>
<polygon fill="black" stroke="black" points="1658.07,-400.95 1667.44,-396.02 1657.04,-394.03 1658.07,-400.95"/>
</g>
<!-- [root] root -->
<g id="node20" class="node">
<title>[root] root</title>
<ellipse fill="none" stroke="black" cx="771.23" cy="-522" rx="58.49" ry="18"/>
<text text-anchor="middle" x="771.23" y="-518.3" font-family="Times,serif" font-size="14.00">[root] root</text>
</g>
<!-- [root] root&#45;&gt;[root] output.dns_load_balancer (expand) -->
<g id="edge27" class="edge">
<title>[root] root&#45;&gt;[root] output.dns_load_balancer (expand)</title>
<path fill="none" stroke="black" d="M802.21,-506.7C818.77,-497.68 838.36,-484.58 851.23,-468 865.23,-449.99 873.17,-425.2 877.51,-406.35"/>
<polygon fill="black" stroke="black" points="880.99,-406.82 879.61,-396.31 874.14,-405.38 880.99,-406.82"/>
</g>
<!-- [root] root&#45;&gt;[root] output.dns_publica_server_1 (expand) -->
<g id="edge28" class="edge">
<title>[root] root&#45;&gt;[root] output.dns_publica_server_1 (expand)</title>
<path fill="none" stroke="black" d="M714.97,-516.89C637.59,-510.31 503.31,-495.3 463.23,-468 441.28,-453.05 426.74,-425.94 418.33,-405.55"/>
<polygon fill="black" stroke="black" points="421.57,-404.22 414.69,-396.17 415.04,-406.75 421.57,-404.22"/>
</g>
<!-- [root] root&#45;&gt;[root] output.dns_publica_server_2 (expand) -->
<g id="edge29" class="edge">
<title>[root] root&#45;&gt;[root] output.dns_publica_server_2 (expand)</title>
<path fill="none" stroke="black" d="M828.17,-517.55C993.95,-507.51 1481.46,-477.99 1748.06,-461.85"/>
<polygon fill="black" stroke="black" points="1748.47,-465.33 1758.24,-461.23 1748.04,-458.34 1748.47,-465.33"/>
</g>
<!-- [root] root&#45;&gt;[root] output.ip_v4_server_1 (expand) -->
<g id="edge30" class="edge">
<title>[root] root&#45;&gt;[root] output.ip_v4_server_1 (expand)</title>
<path fill="none" stroke="black" d="M746.22,-505.64C730.81,-496.18 710.8,-483.89 693.66,-473.36"/>
<polygon fill="black" stroke="black" points="695.34,-470.29 684.99,-468.04 691.68,-476.26 695.34,-470.29"/>
</g>
<!-- [root] root&#45;&gt;[root] output.ip_v4_server_2 (expand) -->
<g id="edge31" class="edge">
<title>[root] root&#45;&gt;[root] output.ip_v4_server_2 (expand)</title>
<path fill="none" stroke="black" d="M717.68,-514.6C625.25,-503.56 433.56,-480.66 307.19,-465.57"/>
<polygon fill="black" stroke="black" points="307.42,-462.07 297.07,-464.36 306.59,-469.02 307.42,-462.07"/>
</g>
<!-- [root] root&#45;&gt;[root] provider[&quot;registry.terraform.io/hashicorp/aws&quot;] (close) -->
<g id="edge32" class="edge">
<title>[root] root&#45;&gt;[root] provider[&quot;registry.terraform.io/hashicorp/aws&quot;] (close)</title>
<path fill="none" stroke="black" d="M823.9,-514.16C905.99,-503.5 1066.87,-482.61 1181.1,-467.77"/>
<polygon fill="black" stroke="black" points="1181.84,-471.2 1191.31,-466.44 1180.94,-464.26 1181.84,-471.2"/>
</g>
</g>
</svg>
